<svg width="60" height="60" viewBox="0 0 60 60" fill="none" xmlns="http://www.w3.org/2000/svg">
<path d="M35.46 60H24.54C23.1303 60 21.9107 59.019 21.609 57.642L20.388 51.99C18.7592 51.2763 17.2147 50.3839 15.783 49.329L10.272 51.084C8.928 51.5126 7.46696 50.9469 6.762 49.725L1.29 40.272C0.592763 39.0495 0.832975 37.5075 1.869 36.555L6.144 32.655C5.94959 30.8883 5.94959 29.1057 6.144 27.339L1.869 23.448C0.831449 22.4951 0.591142 20.9512 1.29 19.728L6.75 10.269C7.45496 9.04709 8.916 8.48141 10.26 8.91L15.771 10.665C16.5032 10.1225 17.2654 9.62167 18.054 9.165C18.811 8.73808 19.5901 8.35154 20.388 8.007L21.612 2.361C21.9122 0.983906 23.1306 0.00148318 24.54 0H35.46C36.8694 0.00148318 38.0878 0.983906 38.388 2.361L39.624 8.01C40.4664 8.38055 41.2867 8.79924 42.081 9.264C42.8228 9.69233 43.54 10.1621 44.229 10.671L49.743 8.916C51.0861 8.48901 52.5453 9.05448 53.25 10.275L58.71 19.734C59.4072 20.9565 59.167 22.4985 58.131 23.451L53.856 27.351C54.0504 29.1177 54.0504 30.9003 53.856 32.667L58.131 36.567C59.167 37.5195 59.4072 39.0616 58.71 40.284L53.25 49.743C52.5453 50.9635 51.0861 51.529 49.743 51.102L44.229 49.347C43.5313 49.8609 42.8062 50.3366 42.057 50.772C41.2705 51.2277 40.4592 51.6394 39.627 52.005L38.388 57.642C38.0866 59.0179 36.8685 59.9988 35.46 60ZM29.988 18C23.3606 18 17.988 23.3726 17.988 30C17.988 36.6274 23.3606 42 29.988 42C36.6154 42 41.988 36.6274 41.988 30C41.988 23.3726 36.6154 18 29.988 18Z" fill="#323232"/>
</svg>
